<?xml version="1.0" standalone="no"?>
<!DOCTYPE svg PUBLIC "-//W3C//DTD SVG 20010904//EN"
 "http://www.w3.org/TR/2001/REC-SVG-20010904/DTD/svg10.dtd">
<svg version="1.0" xmlns="http://www.w3.org/2000/svg"
 width="130.000000pt" height="130.000000pt" viewBox="0 0 130.000000 130.000000"
 preserveAspectRatio="xMidYMid meet">
<metadata>
Created by potrace 1.14, written by Peter Selinger 2001-2017
</metadata>
<g transform="translate(0.000000,130.000000) scale(0.100000,-0.100000)"
fill="#000000" stroke="none">
<path d="M191 1278 c-43 -12 -82 -37 -75 -49 3 -5 2 -9 -3 -8 -21 4 -31 -2
-29 -18 0 -11 -5 -17 -13 -15 -8 2 -11 -3 -8 -12 3 -8 3 -17 -1 -21 -10 -9 -9
-155 0 -161 5 -3 5 -11 1 -17 -11 -19 -10 -211 1 -226 7 -10 8 -13 1 -9 -13 8
-14 -210 -1 -231 6 -9 5 -12 -2 -7 -6 3 -14 1 -18 -5 -4 -7 -3 -10 2 -6 10 6
45 -16 46 -30 2 -15 25 -32 33 -25 5 4 5 2 2 -5 -4 -6 4 -20 18 -31 14 -11 25
-23 25 -27 0 -4 13 -21 30 -37 17 -15 30 -33 30 -38 0 -6 7 -10 15 -10 8 0 15
-4 15 -10 0 -5 12 -21 27 -35 15 -14 25 -25 22 -25 -3 0 27 -34 67 -76 l73
-77 187 -1 c132 -1 192 3 204 11 10 7 21 9 25 5 5 -4 5 -1 1 5 -4 7 -2 13 4
13 6 0 9 4 5 9 -3 5 4 12 15 16 11 3 20 9 20 13 0 4 24 33 53 64 28 31 70 77
92 102 21 24 43 42 47 40 4 -3 5 3 1 12 -4 12 -3 15 5 10 7 -4 12 -3 12 2 0 4
22 32 50 62 27 29 47 57 44 62 -3 5 0 7 7 6 9 -2 11 48 10 207 -1 236 -1 235
-13 235 -4 0 -8 7 -8 15 0 8 -4 15 -10 15 -5 0 -10 7 -10 16 0 8 -4 13 -9 9
-5 -3 -13 4 -16 16 -6 17 -9 19 -16 8 -7 -11 -9 -11 -9 3 0 9 -5 20 -12 24 -7
4 -8 3 -4 -4 4 -7 3 -12 -3 -12 -5 0 -11 4 -13 10 -1 5 -21 11 -43 13 -22 1
-46 6 -53 11 -7 4 -14 1 -18 -7 -3 -9 -13 -13 -25 -10 -10 3 -19 0 -19 -6 0
-6 -9 -11 -20 -11 -11 0 -20 -7 -20 -16 0 -8 -4 -13 -9 -10 -9 6 -26 -22 -23
-36 2 -7 -13 -12 -30 -9 -4 0 -5 -6 -2 -14 4 -9 1 -22 -6 -30 -9 -11 -10 -18
-1 -28 6 -8 8 -17 5 -20 -11 -11 -11 -77 0 -77 7 0 7 -3 1 -8 -14 -10 -14 -72
-1 -72 7 0 7 -3 1 -8 -13 -9 -14 -65 0 -75 7 -6 7 -10 -1 -13 -6 -3 -9 -30 -8
-67 l3 -62 -195 0 -194 0 -1 30 c0 17 -1 146 -1 287 -1 172 -4 255 -11 251 -6
-4 -7 -1 -1 8 14 22 12 118 -3 112 -8 -3 -11 3 -8 17 2 13 2 20 -1 17 -8 -8
-44 25 -38 35 5 7 -21 12 -29 6 -2 -2 -12 5 -22 15 -9 10 -24 16 -31 13 -8 -3
-14 -2 -14 2 0 10 -59 10 -99 0z"/>
</g>
</svg>
