<svg width="72" height="84" viewBox="0 0 72 84" fill="none" xmlns="http://www.w3.org/2000/svg">
<path d="M25.7143 13.29C25.7143 18.6405 22.5482 23.0938 18 25.2471V31.56C18 34.4473 20.2982 36.78 23.1429 36.78H48.8571C51.7018 36.78 54 34.4473 54 31.56V25.2471C49.4518 23.0938 46.2857 18.6405 46.2857 13.29C46.2857 6.08313 52.0393 0.23999 59.1429 0.23999C66.2464 0.23999 72 6.08313 72 13.29C72 18.6405 68.8339 23.0938 64.2857 25.2471V31.56C64.2857 40.2056 57.375 47.22 48.8571 47.22H41.1429V58.7529C45.6911 60.7594 48.8571 65.3595 48.8571 70.71C48.8571 77.9201 43.1036 83.76 36 83.76C28.8964 83.76 23.1429 77.9201 23.1429 70.71C23.1429 65.3595 26.3089 60.7594 30.8571 58.7529V47.22H23.1429C14.6218 47.22 7.71429 40.2056 7.71429 31.56V25.2471C3.17411 23.0938 0 18.6405 0 13.29C0 6.08313 5.75679 0.23999 12.8571 0.23999C19.9607 0.23999 25.7143 6.08313 25.7143 13.29ZM12.8571 17.205C14.9866 17.205 16.7143 15.4514 16.7143 13.29C16.7143 11.1286 14.9866 9.37499 12.8571 9.37499C10.7277 9.37499 9 11.1286 9 13.29C9 15.4514 10.7277 17.205 12.8571 17.205ZM59.1429 17.205C61.2804 17.205 63 15.4514 63 13.29C63 11.1286 61.2804 9.37499 59.1429 9.37499C57.0054 9.37499 55.2857 11.1286 55.2857 13.29C55.2857 15.4514 57.0054 17.205 59.1429 17.205ZM36 66.795C33.8625 66.795 32.1429 68.5404 32.1429 70.71C32.1429 72.8796 33.8625 74.625 36 74.625C38.1375 74.625 39.8571 72.8796 39.8571 70.71C39.8571 68.5404 38.1375 66.795 36 66.795Z" fill="#1082EC"/>
</svg>
