<svg width="72" height="72" viewBox="0 0 72 72" fill="none" xmlns="http://www.w3.org/2000/svg">
<path d="M60.75 9H29.25C28.0125 9 27 10.0069 27 11.25V13.5H18V11.25C18 5.03719 23.0344 0 29.25 0H60.75C66.9656 0 72 5.03719 72 11.25V42.75C72 48.9656 66.9656 54 60.75 54H58.5V45H60.75C61.9875 45 63 43.9875 63 42.75V11.25C63 10.0069 61.9875 9 60.75 9ZM0 27C0 22.0359 4.02891 18 9 18H45C49.9641 18 54 22.0359 54 27V63C54 67.9641 49.9641 72 45 72H9C4.02891 72 0 67.9641 0 63V27ZM13.5 36H40.5C42.9891 36 45 33.9891 45 31.5C45 29.0109 42.9891 27 40.5 27H13.5C11.0152 27 9 29.0109 9 31.5C9 33.9891 11.0152 36 13.5 36Z" fill="#1082EC"/>
</svg>
