<svg width="19" height="18" viewBox="0 0 19 18" fill="none" xmlns="http://www.w3.org/2000/svg">
<g id="star">
<path id="Subtract" d="M3.22459 16.7071C3.13707 17.206 3.62933 17.5965 4.06407 17.3731L9.00195 14.8351L13.9398 17.3731C14.3746 17.5965 14.8668 17.206 14.7793 16.7071L13.8459 11.3864L17.8085 7.6102C18.1788 7.25729 17.9871 6.61204 17.491 6.54156L11.9802 5.7587L9.52309 0.891343C9.30175 0.452886 8.70216 0.452886 8.48082 0.891343L6.02368 5.7587L0.512897 6.54156C0.0167837 6.61204 -0.174917 7.25729 0.195412 7.6102L4.15803 11.3864L3.22459 16.7071ZM8.74227 13.5929L4.5958 15.7241L5.37684 11.2722C5.41365 11.0623 5.34443 10.8474 5.19375 10.7038L1.92355 7.58745L6.4824 6.93983C6.67085 6.91305 6.83541 6.79269 6.92431 6.61658L9.00195 2.50096L11.0796 6.61658C11.1685 6.79269 11.3331 6.91305 11.5215 6.93983L16.0804 7.58745L12.8102 10.7038C12.6595 10.8474 12.5903 11.0623 12.6271 11.2722L13.4081 15.7241L9.26164 13.5929C9.09784 13.5088 8.90606 13.5088 8.74227 13.5929Z" fill="#535353"/>
</g>
</svg>
