<svg width="20" height="24" viewBox="0 0 20 24" fill="none" xmlns="http://www.w3.org/2000/svg">
<path d="M13.0345 0V6H19.1034L13.0345 0ZM11.5172 6V0H3.17241C1.91547 0 0.896545 1.00734 0.896545 2.25V21.75C0.896545 22.9922 1.91547 24 3.17241 24H16.8276C18.0845 24 19.1034 22.9927 19.1034 21.75V7.5H13.0771C12.1953 7.5 11.5172 6.82969 11.5172 6ZM13.7931 19.5H6.20689C5.78965 19.5 5.44827 19.1625 5.44827 18.75C5.44827 18.3375 5.78965 18 6.20689 18H13.7931C14.212 18 14.5517 18.3357 14.5517 18.75C14.5517 19.1625 14.2103 19.5 13.7931 19.5ZM13.7931 16.5H6.20689C5.78965 16.5 5.44827 16.1625 5.44827 15.75C5.44827 15.3375 5.78965 15 6.20689 15H13.7931C14.212 15 14.5517 15.3357 14.5517 15.75C14.5517 16.1625 14.2103 16.5 13.7931 16.5ZM14.5517 12.75C14.5517 13.1625 14.2103 13.5 13.7931 13.5H6.20689C5.78965 13.5 5.44827 13.1625 5.44827 12.75C5.44827 12.3375 5.78965 12 6.20689 12H13.7931C14.2103 12 14.5517 12.3375 14.5517 12.75Z" fill="#1082EC"/>
</svg>
