<svg width="22" height="22" viewBox="0 0 22 22" fill="none" xmlns="http://www.w3.org/2000/svg">
<path fill-rule="evenodd" clip-rule="evenodd" d="M8.9375 16.5C13.1142 16.5 16.5 13.1142 16.5 8.9375C16.5 4.76085 13.1142 1.375 8.9375 1.375C4.76085 1.375 1.375 4.76085 1.375 8.9375C1.375 13.1142 4.76085 16.5 8.9375 16.5ZM17.875 8.9375C17.875 13.8735 13.8735 17.875 8.9375 17.875C4.00145 17.875 0 13.8735 0 8.9375C0 4.00145 4.00145 0 8.9375 0C13.8735 0 17.875 4.00145 17.875 8.9375Z" fill="#3B3B3B"/>
<path d="M14.2228 16.1455C14.2634 16.2005 14.3086 16.2531 14.3583 16.3029L19.6527 21.5973C20.1897 22.1342 21.0603 22.1342 21.5973 21.5973C22.1342 21.0603 22.1342 20.1897 21.5973 19.6527L16.3029 14.3583C16.2531 14.3086 16.2005 14.2634 16.1455 14.2228C15.6061 14.9572 14.9572 15.6061 14.2228 16.1455Z" fill="#3B3B3B"/>
<path fill-rule="evenodd" clip-rule="evenodd" d="M8.9375 4.125C9.3172 4.125 9.625 4.4328 9.625 4.8125V8.25H13.0625C13.4422 8.25 13.75 8.5578 13.75 8.9375C13.75 9.3172 13.4422 9.625 13.0625 9.625H9.625V13.0625C9.625 13.4422 9.3172 13.75 8.9375 13.75C8.5578 13.75 8.25 13.4422 8.25 13.0625V9.625H4.8125C4.4328 9.625 4.125 9.3172 4.125 8.9375C4.125 8.5578 4.4328 8.25 4.8125 8.25H8.25V4.8125C8.25 4.4328 8.5578 4.125 8.9375 4.125Z" fill="#3B3B3B"/>
</svg>
