<svg width="22" height="22" viewBox="0 0 22 22" fill="none" xmlns="http://www.w3.org/2000/svg">
<path fill-rule="evenodd" clip-rule="evenodd" d="M11.875 4.8125C11.875 4.4328 11.5672 4.125 11.1875 4.125H2.0625C0.92341 4.125 0 5.04841 0 6.1875V19.9375C0 21.0766 0.923412 22 2.0625 22H15.8125C16.9516 22 17.875 21.0766 17.875 19.9375V10.8125C17.875 10.4328 17.5672 10.125 17.1875 10.125C16.8078 10.125 16.5 10.4328 16.5 10.8125V19.9375C16.5 20.3172 16.1922 20.625 15.8125 20.625H2.0625C1.6828 20.625 1.375 20.3172 1.375 19.9375V6.1875C1.375 5.8078 1.6828 5.5 2.0625 5.5H11.1875C11.5672 5.5 11.875 5.1922 11.875 4.8125Z" fill="#3B3B3B"/>
<path fill-rule="evenodd" clip-rule="evenodd" d="M22 0.6875C22 0.307804 21.6922 0 21.3125 0H14.4375C14.0578 0 13.75 0.307804 13.75 0.6875C13.75 1.0672 14.0578 1.375 14.4375 1.375H19.6527L8.45136 12.5764C8.18288 12.8449 8.18288 13.2801 8.45136 13.5486C8.71985 13.8171 9.15515 13.8171 9.42364 13.5486L20.625 2.34727V7.5625C20.625 7.9422 20.9328 8.25 21.3125 8.25C21.6922 8.25 22 7.9422 22 7.5625V0.6875Z" fill="#3B3B3B"/>
</svg>
