<svg width="22" height="22" viewBox="0 0 22 22" fill="none" xmlns="http://www.w3.org/2000/svg">
<path fill-rule="evenodd" clip-rule="evenodd" d="M8.0147 13.9859C7.74621 13.7174 7.31091 13.7174 7.04242 13.9859L1.41016 19.6182L1.41016 15.8125C1.41016 15.4328 1.10235 15.125 0.722657 15.125C0.342962 15.125 0.0351562 15.4328 0.0351567 15.8125L0.0351562 21.2779C0.0351562 21.6576 0.342962 21.9655 0.722657 21.9655L6.18805 21.9654C6.56775 21.9654 6.87556 21.6576 6.87555 21.2779C6.87556 20.8982 6.56775 20.5904 6.18805 20.5904L2.38243 20.5904L8.0147 14.9582C8.28318 14.6897 8.28318 14.2544 8.0147 13.9859Z" fill="#3B3B3B"/>
<path fill-rule="evenodd" clip-rule="evenodd" d="M13.9853 13.9859C14.2538 13.7174 14.6891 13.7174 14.9576 13.9859L20.5898 19.6182L20.5898 15.8125C20.5898 15.4328 20.8976 15.125 21.2773 15.125C21.657 15.125 21.9648 15.4328 21.9648 15.8125L21.9648 21.2779C21.9648 21.6576 21.657 21.9655 21.2773 21.9655L15.8119 21.9654C15.4322 21.9654 15.1244 21.6576 15.1244 21.2779C15.1244 20.8982 15.4322 20.5904 15.8119 20.5904L19.6176 20.5904L13.9853 14.9582C13.7168 14.6897 13.7168 14.2544 13.9853 13.9859Z" fill="#3B3B3B"/>
<path fill-rule="evenodd" clip-rule="evenodd" d="M13.9853 8.01409C14.2538 8.28258 14.6891 8.28258 14.9576 8.01409L20.5898 2.38182L20.5898 6.18751C20.5898 6.56721 20.8976 6.87501 21.2773 6.87501C21.657 6.87501 21.9648 6.56721 21.9648 6.18751L21.9648 0.722051C21.9648 0.342356 21.657 0.0345505 21.2773 0.0345505L15.8119 0.0345545C15.4323 0.0345543 15.1244 0.34236 15.1244 0.722055C15.1244 1.10175 15.4322 1.40956 15.8119 1.40956L19.6176 1.40955L13.9853 7.04182C13.7168 7.3103 13.7168 7.7456 13.9853 8.01409Z" fill="#3B3B3B"/>
<path fill-rule="evenodd" clip-rule="evenodd" d="M8.0147 8.01409C7.74621 8.28258 7.31091 8.28258 7.04242 8.01409L1.41016 2.38182L1.41016 6.18751C1.41016 6.56721 1.10235 6.87501 0.722657 6.87501C0.342962 6.87501 0.0351562 6.56721 0.0351567 6.18751L0.0351562 0.722051C0.0351562 0.342356 0.342962 0.0345505 0.722657 0.0345505L6.18805 0.0345545C6.56775 0.0345543 6.87556 0.34236 6.87555 0.722055C6.87556 1.10175 6.56775 1.40956 6.18805 1.40956L2.38243 1.40955L8.0147 7.04182C8.28318 7.3103 8.28318 7.7456 8.0147 8.01409Z" fill="#3B3B3B"/>
</svg>
