<svg width="22" height="22" viewBox="0 0 22 22" fill="none" xmlns="http://www.w3.org/2000/svg">
<path fill-rule="evenodd" clip-rule="evenodd" d="M1.57636 6.67364C1.30788 6.40515 1.30788 5.96985 1.57636 5.70136L7.07636 0.201363C7.34485 -0.0671215 7.78015 -0.0671215 8.04864 0.201363C8.31712 0.469851 8.31712 0.905149 8.04864 1.17364L3.72227 5.5L17.1875 5.5C19.086 5.5 20.625 7.03902 20.625 8.9375V19.9375C20.625 20.3172 20.3172 20.625 19.9375 20.625C19.5578 20.625 19.25 20.3172 19.25 19.9375V8.9375C19.25 7.79841 18.3266 6.875 17.1875 6.875L3.72227 6.875L8.04864 11.2014C8.31712 11.4698 8.31712 11.9052 8.04864 12.1736C7.78015 12.4421 7.34485 12.4421 7.07636 12.1736L1.57636 6.67364Z" fill="#3B3B3B"/>
</svg>
