<svg width="22" height="22" viewBox="0 0 22 22" fill="none" xmlns="http://www.w3.org/2000/svg">
<path d="M4.8125 4.8125C3.96841 3.59636 4.71015 2.11518 5.99219 1.375L11 9.93603L16.0078 1.375C17.2898 2.11518 18.0317 3.59636 17.1876 4.8125L12.113 11.8388L14.2535 15.498C14.7214 15.2595 15.2513 15.125 15.8125 15.125C17.711 15.125 19.25 16.664 19.25 18.5625C19.25 20.461 17.711 22 15.8125 22C13.914 22 12.375 20.461 12.375 18.5625C12.375 17.7307 12.6704 16.968 13.162 16.3734L11 13.3799L8.83797 16.3734C9.32959 16.968 9.625 17.7307 9.625 18.5625C9.625 20.461 8.08598 22 6.1875 22C4.28902 22 2.75 20.461 2.75 18.5625C2.75 16.664 4.28902 15.125 6.1875 15.125C6.74873 15.125 7.27855 15.2595 7.74648 15.498L9.88699 11.8387L4.8125 4.8125ZM8.25 18.5625C8.25 17.4234 7.32659 16.5 6.1875 16.5C5.04841 16.5 4.125 17.4234 4.125 18.5625C4.125 19.7016 5.04841 20.625 6.1875 20.625C7.32659 20.625 8.25 19.7016 8.25 18.5625ZM17.875 18.5625C17.875 17.4234 16.9516 16.5 15.8125 16.5C14.6734 16.5 13.75 17.4234 13.75 18.5625C13.75 19.7016 14.6734 20.625 15.8125 20.625C16.9516 20.625 17.875 19.7016 17.875 18.5625Z" fill="#3B3B3B"/>
</svg>
