<svg width="22" height="22" viewBox="0 0 22 22" fill="none" xmlns="http://www.w3.org/2000/svg">
<path fill-rule="evenodd" clip-rule="evenodd" d="M20.4236 6.67364C20.6921 6.40515 20.6921 5.96985 20.4236 5.70136L14.9236 0.201363C14.6552 -0.0671215 14.2198 -0.0671215 13.9514 0.201363C13.6829 0.469851 13.6829 0.905149 13.9514 1.17364L18.2777 5.5L4.8125 5.5C2.91402 5.5 1.375 7.03902 1.375 8.9375V19.9375C1.375 20.3172 1.6828 20.625 2.0625 20.625C2.4422 20.625 2.75 20.3172 2.75 19.9375V8.9375C2.75 7.79841 3.67341 6.875 4.8125 6.875L18.2777 6.875L13.9514 11.2014C13.6829 11.4698 13.6829 11.9052 13.9514 12.1736C14.2198 12.4421 14.6552 12.4421 14.9236 12.1736L20.4236 6.67364Z" fill="#3B3B3B"/>
</svg>
