<svg width="26" height="26" viewBox="0 0 26 26" fill="none" xmlns="http://www.w3.org/2000/svg">
<path d="M10.6979 3.25H4.73958C4.34452 3.25 3.96564 3.40979 3.68629 3.69422C3.40694 3.97865 3.25 4.36442 3.25 4.76667V16.9C3.25 17.3022 3.40694 17.688 3.68629 17.9724C3.96564 18.2569 4.34452 18.4167 4.73958 18.4167H13.6771C14.0721 18.4167 14.451 18.2569 14.7304 17.9724C15.0097 17.688 15.1667 17.3022 15.1667 16.9V7.8M10.6979 3.25L15.1667 7.8M10.6979 3.25V7.8H15.1667M6.97396 13.1083H11.4427" stroke="#3B3B3B" stroke-width="1.2" stroke-linecap="round" stroke-linejoin="round"/>
<path d="M19.0938 10.8333H14.2188C13.8955 10.8333 13.5855 10.9589 13.357 11.1824C13.1284 11.4059 13 11.709 13 12.025V21.5583C13 21.8744 13.1284 22.1775 13.357 22.401C13.5855 22.6245 13.8955 22.75 14.2188 22.75H21.5312C21.8545 22.75 22.1645 22.6245 22.393 22.401C22.6216 22.1775 22.75 21.8744 22.75 21.5583V14.4083L19.0938 10.8333Z" fill="white"/>
<path d="M19.0938 10.8333V14.4083H22.75" fill="white"/>
<path d="M19.0938 10.8333H14.2188C13.8955 10.8333 13.5855 10.9589 13.357 11.1824C13.1284 11.4059 13 11.709 13 12.025V21.5583C13 21.8744 13.1284 22.1775 13.357 22.401C13.5855 22.6245 13.8955 22.75 14.2188 22.75H21.5313C21.8545 22.75 22.1645 22.6245 22.393 22.401C22.6216 22.1775 22.75 21.8744 22.75 21.5583V14.4083M19.0938 10.8333L22.75 14.4083M19.0938 10.8333V14.4083H22.75M16.0469 18.5792H19.7031" stroke="#3B3B3B" stroke-width="1.2" stroke-linecap="round" stroke-linejoin="round"/>
</svg>
