<svg width="24" height="24" viewBox="0 0 24 24" fill="none" xmlns="http://www.w3.org/2000/svg">
<path d="M14.5 4.8H16.25C16.7141 4.8 17.1592 4.98964 17.4874 5.32721C17.8156 5.66477 18 6.12261 18 6.6V19.2C18 19.6774 17.8156 20.1352 17.4874 20.4728C17.1592 20.8104 16.7141 21 16.25 21H5.75C5.28587 21 4.84075 20.8104 4.51256 20.4728C4.18437 20.1352 4 19.6774 4 19.2V6.6C4 6.12261 4.18437 5.66477 4.51256 5.32721C4.84075 4.98964 5.28587 4.8 5.75 4.8H7.5M8.375 3H13.625C14.1082 3 14.5 3.40294 14.5 3.9V5.7C14.5 6.19706 14.1082 6.6 13.625 6.6H8.375C7.89175 6.6 7.5 6.19706 7.5 5.7V3.9C7.5 3.40294 7.89175 3 8.375 3Z" stroke="#3B3B3B" stroke-width="1.2" stroke-linecap="round" stroke-linejoin="round"/>
<path d="M16.625 11H12.125C11.8266 11 11.5405 11.1159 11.3295 11.3222C11.1185 11.5285 11 11.8083 11 12.1V20.9C11 21.1917 11.1185 21.4715 11.3295 21.6778C11.5405 21.8841 11.8266 22 12.125 22H18.875C19.1734 22 19.4595 21.8841 19.6705 21.6778C19.8815 21.4715 20 21.1917 20 20.9V14.3L16.625 11Z" fill="white"/>
<path d="M16.625 11V14.3H20" fill="white"/>
<path d="M16.625 11H12.125C11.8266 11 11.5405 11.1159 11.3295 11.3222C11.1185 11.5285 11 11.8083 11 12.1V20.9C11 21.1917 11.1185 21.4715 11.3295 21.6778C11.5405 21.8841 11.8266 22 12.125 22H18.875C19.1734 22 19.4595 21.8841 19.6705 21.6778C19.8815 21.4715 20 21.1917 20 20.9V14.3M16.625 11L20 14.3M16.625 11V14.3H20M13.8125 18.15H17.1875" stroke="#3B3B3B" stroke-width="1.2" stroke-linecap="round" stroke-linejoin="round"/>
</svg>
