<svg width="22" height="22" viewBox="0 0 22 22" fill="none" xmlns="http://www.w3.org/2000/svg">
<path d="M7.5625 7.5625C7.9422 7.5625 8.25 7.8703 8.25 8.25V16.5C8.25 16.8797 7.9422 17.1875 7.5625 17.1875C7.1828 17.1875 6.875 16.8797 6.875 16.5V8.25C6.875 7.8703 7.1828 7.5625 7.5625 7.5625Z" fill="#3B3B3B"/>
<path d="M11 7.5625C11.3797 7.5625 11.6875 7.8703 11.6875 8.25V16.5C11.6875 16.8797 11.3797 17.1875 11 17.1875C10.6203 17.1875 10.3125 16.8797 10.3125 16.5V8.25C10.3125 7.8703 10.6203 7.5625 11 7.5625Z" fill="#3B3B3B"/>
<path d="M15.125 8.25C15.125 7.8703 14.8172 7.5625 14.4375 7.5625C14.0578 7.5625 13.75 7.8703 13.75 8.25V16.5C13.75 16.8797 14.0578 17.1875 14.4375 17.1875C14.8172 17.1875 15.125 16.8797 15.125 16.5V8.25Z" fill="#3B3B3B"/>
<path fill-rule="evenodd" clip-rule="evenodd" d="M19.9375 4.125C19.9375 4.88439 19.3219 5.5 18.5625 5.5H17.875V17.875C17.875 19.3938 16.6438 20.625 15.125 20.625H6.875C5.35622 20.625 4.125 19.3938 4.125 17.875V5.5H3.4375C2.67811 5.5 2.0625 4.88439 2.0625 4.125V2.75C2.0625 1.99061 2.67811 1.375 3.4375 1.375H8.25C8.25 0.615609 8.86561 0 9.625 0H12.375C13.1344 0 13.75 0.615609 13.75 1.375H18.5625C19.3219 1.375 19.9375 1.99061 19.9375 2.75V4.125ZM5.6623 5.5L5.5 5.58115V17.875C5.5 18.6344 6.11561 19.25 6.875 19.25H15.125C15.8844 19.25 16.5 18.6344 16.5 17.875V5.58115L16.3377 5.5H5.6623ZM3.4375 4.125V2.75H18.5625V4.125H3.4375Z" fill="#3B3B3B"/>
</svg>
