<svg width="72" height="52" viewBox="0 0 72 52" fill="none" xmlns="http://www.w3.org/2000/svg">
<path d="M23.76 7.99999C23.76 11.9712 20.5312 15.2 16.56 15.2C12.5887 15.2 9.36 11.9712 9.36 7.99999C9.36 4.02311 12.5887 0.799988 16.56 0.799988C20.5312 0.799988 23.76 4.02311 23.76 7.99999ZM3.6 26C3.6 22.0287 6.82313 18.8 10.8 18.8H21.6C22.9725 18.8 24.2662 19.1825 25.3575 19.8575C21.1725 21.5562 17.9775 25.1675 16.83 29.6H7.2C5.21213 29.6 3.6 27.9912 3.6 26ZM46.7887 19.7675C47.8462 19.1487 49.0838 18.8 50.4 18.8H61.2C65.1712 18.8 68.4 22.0287 68.4 26C68.4 27.9912 66.7913 29.6 64.8 29.6H55.53C54.36 25.0887 50.9738 21.4325 46.7887 19.7675ZM44.01 22.67C47.6213 23.5025 50.5463 26.1462 51.7613 29.6C52.1663 30.725 52.38 31.94 52.38 33.2C52.38 35.1912 50.7713 36.8 48.78 36.8H23.58C21.5888 36.8 19.98 35.1912 19.98 33.2C19.98 31.94 20.1938 30.725 20.5988 29.6C21.78 26.2587 24.5588 23.66 28.0238 22.7487C28.8113 22.5237 29.8238 22.4 30.78 22.4H41.58C42.4125 22.4 43.2338 22.49 44.01 22.67ZM63.36 7.99999C63.36 11.9712 60.1313 15.2 56.16 15.2C52.1888 15.2 48.96 11.9712 48.96 7.99999C48.96 4.02311 52.1888 0.799988 56.16 0.799988C60.1313 0.799988 63.36 4.02311 63.36 7.99999ZM27.18 9.79999C27.18 4.82974 31.2075 0.799988 36.18 0.799988C41.1525 0.799988 45.18 4.82974 45.18 9.79999C45.18 14.7725 41.1525 18.8 36.18 18.8C31.2075 18.8 27.18 14.7725 27.18 9.79999ZM68.4 44C70.3913 44 72 45.6087 72 47.6C72 49.5912 70.3913 51.2 68.4 51.2H3.6C1.61213 51.2 0 49.5912 0 47.6C0 45.6087 1.61213 44 3.6 44H68.4Z" fill="#1082EC"/>
</svg>
