<svg width="25" height="24" viewBox="0 0 25 24" fill="none" xmlns="http://www.w3.org/2000/svg">
<path d="M14.0314 1.59003C13.8768 1.31101 13.6538 1.07919 13.385 0.917977C13.1162 0.756766 12.8111 0.671875 12.5005 0.671875C12.1898 0.671875 11.8847 0.756766 11.6159 0.917977C11.3471 1.07919 11.1241 1.31101 10.9695 1.59003L0.257301 20.4689C-0.456635 21.7278 0.399463 23.3281 1.78828 23.3281H23.2111C24.5999 23.3281 25.4575 21.7262 24.742 20.4689L14.0314 1.59003ZM12.4973 7.14673C13.3331 7.14673 13.9877 7.89431 13.9033 8.75677L13.3566 14.4316C13.3382 14.6545 13.2397 14.8622 13.0806 15.0135C12.9215 15.1649 12.7133 15.2488 12.4973 15.2488C12.2813 15.2488 12.0732 15.1649 11.9141 15.0135C11.755 14.8622 11.6565 14.6545 11.6381 14.4316L11.0913 8.75677C11.0717 8.55327 11.0934 8.34776 11.1551 8.15348C11.2168 7.9592 11.3172 7.78047 11.4496 7.62879C11.5821 7.47711 11.7437 7.35585 11.9242 7.27282C12.1046 7.1898 12.2999 7.14684 12.4973 7.14673ZM12.5005 16.8556C12.9148 16.8556 13.3121 17.026 13.6051 17.3295C13.8981 17.633 14.0627 18.0445 14.0627 18.4737C14.0627 18.9029 13.8981 19.3144 13.6051 19.6179C13.3121 19.9214 12.9148 20.0918 12.5005 20.0918C12.0861 20.0918 11.6888 19.9214 11.3958 19.6179C11.1028 19.3144 10.9382 18.9029 10.9382 18.4737C10.9382 18.0445 11.1028 17.633 11.3958 17.3295C11.6888 17.026 12.0861 16.8556 12.5005 16.8556Z" fill="white"/>
</svg>
