<svg width="29" height="26" viewBox="0 0 29 26" fill="none" xmlns="http://www.w3.org/2000/svg">
<path d="M16.2152 1.02834C16.042 0.71583 15.7923 0.45619 15.4912 0.275634C15.1901 0.0950782 14.8484 0 14.5005 0C14.1526 0 13.8109 0.0950782 13.5098 0.275634C13.2088 0.45619 12.959 0.71583 12.7858 1.02834L0.788177 22.1726C-0.0114316 23.5826 0.947399 25.375 2.50287 25.375H26.4964C28.0519 25.375 29.0124 23.5808 28.2111 22.1726L16.2152 1.02834ZM14.497 7.25183C15.4331 7.25183 16.1662 8.08912 16.0717 9.05509L15.4593 15.4109C15.4388 15.6606 15.3285 15.8932 15.1503 16.0627C14.9721 16.2322 14.7389 16.3262 14.497 16.3262C14.2551 16.3262 14.0219 16.2322 13.8438 16.0627C13.6656 15.8932 13.5553 15.6606 13.5347 15.4109L12.9223 9.05509C12.9003 8.82716 12.9246 8.59699 12.9938 8.3794C13.0629 8.16181 13.1752 7.96162 13.3236 7.79174C13.4719 7.62186 13.653 7.48605 13.8551 7.39306C14.0572 7.30007 14.2759 7.25196 14.497 7.25183ZM14.5005 18.1257C14.9646 18.1257 15.4096 18.3167 15.7377 18.6565C16.0659 18.9964 16.2502 19.4574 16.2502 19.938C16.2502 20.4187 16.0659 20.8797 15.7377 21.2195C15.4096 21.5594 14.9646 21.7504 14.5005 21.7504C14.0365 21.7504 13.5914 21.5594 13.2633 21.2195C12.9352 20.8797 12.7508 20.4187 12.7508 19.938C12.7508 19.4574 12.9352 18.9964 13.2633 18.6565C13.5914 18.3167 14.0365 18.1257 14.5005 18.1257Z" fill="#EA5B5B"/>
</svg>
