<svg width="41" height="40" viewBox="0 0 41 40" fill="none" xmlns="http://www.w3.org/2000/svg">
<g clip-path="url(#clip0_2542_9107)">
<path d="M20.5 37.5C15.8587 37.5 11.4075 35.6563 8.12563 32.3744C4.84374 29.0925 3 24.6413 3 20C3 15.3587 4.84374 10.9075 8.12563 7.62563C11.4075 4.34374 15.8587 2.5 20.5 2.5C25.1413 2.5 29.5925 4.34374 32.8744 7.62563C36.1563 10.9075 38 15.3587 38 20C38 24.6413 36.1563 29.0925 32.8744 32.3744C29.5925 35.6563 25.1413 37.5 20.5 37.5ZM20.5 40C25.8043 40 30.8914 37.8929 34.6421 34.1421C38.3929 30.3914 40.5 25.3043 40.5 20C40.5 14.6957 38.3929 9.60859 34.6421 5.85786C30.8914 2.10714 25.8043 0 20.5 0C15.1957 0 10.1086 2.10714 6.35786 5.85786C2.60714 9.60859 0.5 14.6957 0.5 20C0.5 25.3043 2.60714 30.3914 6.35786 34.1421C10.1086 37.8929 15.1957 40 20.5 40Z" fill="#4ECB71"/>
<path d="M27.9249 12.425C27.9071 12.4423 27.8904 12.4607 27.8749 12.48L19.1924 23.5425L13.9599 18.3075C13.6044 17.9763 13.1343 17.796 12.6486 17.8046C12.1628 17.8132 11.6993 18.0099 11.3558 18.3535C11.0123 18.697 10.8155 19.1605 10.8069 19.6462C10.7984 20.132 10.9787 20.6021 11.3099 20.9575L17.9249 27.575C18.1031 27.7529 18.3153 27.8931 18.5488 27.9872C18.7824 28.0813 19.0325 28.1273 19.2842 28.1227C19.536 28.118 19.7842 28.0627 20.0141 27.96C20.244 27.8573 20.4509 27.7094 20.6224 27.525L30.6024 15.05C30.9422 14.6934 31.128 14.2173 31.1196 13.7247C31.1112 13.2321 30.9093 12.7627 30.5575 12.4178C30.2057 12.0729 29.7323 11.8803 29.2397 11.8817C28.7471 11.883 28.2747 12.0782 27.9249 12.425Z" fill="#4ECB71"/>
</g>
<defs>
<clipPath id="clip0_2542_9107">
<rect width="40" height="40" fill="white" transform="translate(0.5)"/>
</clipPath>
</defs>
</svg>
