<svg width="26" height="26" viewBox="0 0 26 26" fill="none" xmlns="http://www.w3.org/2000/svg">
<g clip-path="url(#clip0_2976_517)">
<path d="M13 23.9375C10.0992 23.9375 7.3172 22.7852 5.26602 20.734C3.21484 18.6828 2.0625 15.9008 2.0625 13C2.0625 10.0992 3.21484 7.3172 5.26602 5.26602C7.3172 3.21484 10.0992 2.0625 13 2.0625C15.9008 2.0625 18.6828 3.21484 20.734 5.26602C22.7852 7.3172 23.9375 10.0992 23.9375 13C23.9375 15.9008 22.7852 18.6828 20.734 20.734C18.6828 22.7852 15.9008 23.9375 13 23.9375ZM13 25.5C16.3152 25.5 19.4946 24.183 21.8388 21.8388C24.183 19.4946 25.5 16.3152 25.5 13C25.5 9.68479 24.183 6.50537 21.8388 4.16117C19.4946 1.81696 16.3152 0.5 13 0.5C9.68479 0.5 6.50537 1.81696 4.16117 4.16117C1.81696 6.50537 0.5 9.68479 0.5 13C0.5 16.3152 1.81696 19.4946 4.16117 21.8388C6.50537 24.183 9.68479 25.5 13 25.5Z" fill="white"/>
<path d="M17.6403 8.26564C17.6292 8.27642 17.6187 8.2879 17.609 8.30001L12.1825 15.2141L8.91217 11.9422C8.69003 11.7352 8.3962 11.6225 8.09261 11.6279C7.78901 11.6332 7.49935 11.7562 7.28464 11.9709C7.06993 12.1856 6.94695 12.4753 6.94159 12.7789C6.93623 13.0825 7.04892 13.3763 7.25592 13.5984L11.3903 17.7344C11.5017 17.8456 11.6343 17.9332 11.7803 17.992C11.9262 18.0508 12.0826 18.0796 12.2399 18.0767C12.3972 18.0737 12.5524 18.0392 12.6961 17.975C12.8398 17.9108 12.9691 17.8184 13.0762 17.7031L19.3137 9.90626C19.5261 9.68334 19.6423 9.38579 19.637 9.07793C19.6318 8.77007 19.5056 8.47665 19.2857 8.2611C19.0658 8.04554 18.77 7.92518 18.4621 7.92603C18.1542 7.92688 17.859 8.04887 17.6403 8.26564Z" fill="white"/>
</g>
<defs>
<clipPath id="clip0_2976_517">
<rect width="25" height="25" fill="white" transform="translate(0.5 0.5)"/>
</clipPath>
</defs>
</svg>
