<svg width="26" height="26" viewBox="0 0 26 26" fill="none" xmlns="http://www.w3.org/2000/svg">
<path d="M21.3327 6.74992C21.3327 4.49159 17.5171 2.58325 12.9993 2.58325C8.48164 2.58325 4.66602 4.49159 4.66602 6.74992V8.83325C4.66602 11.0916 8.48164 12.9999 12.9993 12.9999C17.5171 12.9999 21.3327 11.0916 21.3327 8.83325V6.74992ZM12.9993 20.2916C8.48164 20.2916 4.66602 18.3833 4.66602 16.1249V19.2499C4.66602 21.5083 8.48164 23.4166 12.9993 23.4166C17.5171 23.4166 21.3327 21.5083 21.3327 19.2499V16.1249C21.3327 18.3833 17.5171 20.2916 12.9993 20.2916Z" fill="#F5F5F5"/>
<path d="M21.3327 10.9167C21.3327 13.1751 17.5171 15.0834 12.9993 15.0834C8.48164 15.0834 4.66602 13.1751 4.66602 10.9167V14.0417C4.66602 16.3001 8.48164 18.2084 12.9993 18.2084C17.5171 18.2084 21.3327 16.3001 21.3327 14.0417V10.9167Z" fill="#F5F5F5"/>
</svg>
