<svg width="33" height="38" viewBox="0 0 33 38" fill="none" xmlns="http://www.w3.org/2000/svg">
<path d="M25.666 6.70831V7.95831C25.666 8.30349 25.3862 8.58331 25.041 8.58331H6.29102C5.94584 8.58331 5.66602 8.30349 5.66602 7.95831V6.70831C5.66602 6.36313 5.94584 6.08331 6.29102 6.08331H11.916V4.83331C11.916 4.14296 12.4757 3.58331 13.166 3.58331H18.166C18.8564 3.58331 19.416 4.14296 19.416 4.83331V6.08331H25.041C25.3862 6.08331 25.666 6.36313 25.666 6.70831ZM8.00352 26.2583C8.09557 27.5702 9.18835 28.5865 10.5035 28.5833H20.8535C22.1687 28.5865 23.2615 27.5702 23.3535 26.2583L24.416 11.0833H6.91602L8.00352 26.2583Z" fill="white"/>
</svg>
