<svg width="33" height="38" viewBox="0 0 33 38" fill="none" xmlns="http://www.w3.org/2000/svg">
<path d="M27.3332 7.43754V8.97921C27.3332 9.40493 27.03 9.75004 26.6561 9.75004H6.34359C5.96964 9.75004 5.6665 9.40493 5.6665 8.97921V7.43754C5.6665 7.01182 5.96964 6.66671 6.34359 6.66671H12.4373V5.12504C12.4373 4.2736 13.0436 3.58337 13.7915 3.58337H19.2082C19.9561 3.58337 20.5623 4.2736 20.5623 5.12504V6.66671H26.6561C27.03 6.66671 27.3332 7.01182 27.3332 7.43754ZM8.1988 31.5492C8.29852 33.1673 9.48237 34.4207 10.9071 34.4167H22.1196C23.5444 34.4207 24.7282 33.1673 24.828 31.5492L25.979 12.8334H7.02067L8.1988 31.5492Z" fill="#4ECB71"/>
</svg>
