<svg width="25" height="26" viewBox="0 0 25 26" fill="none" xmlns="http://www.w3.org/2000/svg">
<g clip-path="url(#clip0_2976_2151)">
<path d="M12.5 23.9375C9.59919 23.9375 6.8172 22.7852 4.76602 20.734C2.71484 18.6828 1.5625 15.9008 1.5625 13C1.5625 10.0992 2.71484 7.3172 4.76602 5.26602C6.8172 3.21484 9.59919 2.0625 12.5 2.0625C15.4008 2.0625 18.1828 3.21484 20.234 5.26602C22.2852 7.3172 23.4375 10.0992 23.4375 13C23.4375 15.9008 22.2852 18.6828 20.234 20.734C18.1828 22.7852 15.4008 23.9375 12.5 23.9375ZM12.5 25.5C15.8152 25.5 18.9946 24.183 21.3388 21.8388C23.683 19.4946 25 16.3152 25 13C25 9.68479 23.683 6.50537 21.3388 4.16117C18.9946 1.81696 15.8152 0.5 12.5 0.5C9.18479 0.5 6.00537 1.81696 3.66117 4.16117C1.31696 6.50537 0 9.68479 0 13C0 16.3152 1.31696 19.4946 3.66117 21.8388C6.00537 24.183 9.18479 25.5 12.5 25.5Z" fill="white"/>
<path d="M7.25882 7.75937C7.33139 7.68661 7.4176 7.62889 7.51252 7.5895C7.60743 7.55012 7.70918 7.52985 7.81194 7.52985C7.9147 7.52985 8.01646 7.55012 8.11137 7.5895C8.20628 7.62889 8.2925 7.68661 8.36507 7.75937L12.4994 11.8953L16.6338 7.75937C16.7065 7.68673 16.7927 7.62911 16.8876 7.5898C16.9825 7.55049 17.0842 7.53026 17.1869 7.53026C17.2897 7.53026 17.3914 7.55049 17.4863 7.5898C17.5812 7.62911 17.6674 7.68673 17.7401 7.75937C17.8127 7.832 17.8703 7.91824 17.9096 8.01314C17.9489 8.10805 17.9692 8.20977 17.9692 8.31249C17.9692 8.41522 17.9489 8.51694 17.9096 8.61184C17.8703 8.70675 17.8127 8.79298 17.7401 8.86562L13.6041 13L17.7401 17.1344C17.8127 17.207 17.8703 17.2932 17.9096 17.3881C17.9489 17.483 17.9692 17.5848 17.9692 17.6875C17.9692 17.7902 17.9489 17.8919 17.9096 17.9868C17.8703 18.0817 17.8127 18.168 17.7401 18.2406C17.6674 18.3133 17.5812 18.3709 17.4863 18.4102C17.3914 18.4495 17.2897 18.4697 17.1869 18.4697C17.0842 18.4697 16.9825 18.4495 16.8876 18.4102C16.7927 18.3709 16.7065 18.3133 16.6338 18.2406L12.4994 14.1047L8.36507 18.2406C8.29243 18.3133 8.2062 18.3709 8.11129 18.4102C8.01639 18.4495 7.91467 18.4697 7.81194 18.4697C7.70922 18.4697 7.6075 18.4495 7.51259 18.4102C7.41769 18.3709 7.33146 18.3133 7.25882 18.2406C7.18618 18.168 7.12856 18.0817 7.08925 17.9868C7.04994 17.8919 7.02971 17.7902 7.02971 17.6875C7.02971 17.5848 7.04994 17.483 7.08925 17.3881C7.12856 17.2932 7.18618 17.207 7.25882 17.1344L11.3948 13L7.25882 8.86562C7.18606 8.79305 7.12834 8.70683 7.08895 8.61192C7.04957 8.51701 7.0293 8.41525 7.0293 8.31249C7.0293 8.20973 7.04957 8.10798 7.08895 8.01306C7.12834 7.91815 7.18606 7.83194 7.25882 7.75937Z" fill="white"/>
</g>
<defs>
<clipPath id="clip0_2976_2151">
<rect width="25" height="25" fill="white" transform="translate(0 0.5)"/>
</clipPath>
</defs>
</svg>
