<svg width="41" height="40" viewBox="0 0 41 40" fill="none" xmlns="http://www.w3.org/2000/svg">
<g clip-path="url(#clip0_2542_9113)">
<path d="M20.5 37.5C15.8587 37.5 11.4075 35.6563 8.12563 32.3744C4.84374 29.0925 3 24.6413 3 20C3 15.3587 4.84374 10.9075 8.12563 7.62563C11.4075 4.34374 15.8587 2.5 20.5 2.5C25.1413 2.5 29.5925 4.34374 32.8744 7.62563C36.1563 10.9075 38 15.3587 38 20C38 24.6413 36.1563 29.0925 32.8744 32.3744C29.5925 35.6563 25.1413 37.5 20.5 37.5ZM20.5 40C25.8043 40 30.8914 37.8929 34.6421 34.1421C38.3929 30.3914 40.5 25.3043 40.5 20C40.5 14.6957 38.3929 9.60859 34.6421 5.85786C30.8914 2.10714 25.8043 0 20.5 0C15.1957 0 10.1086 2.10714 6.35786 5.85786C2.60714 9.60859 0.5 14.6957 0.5 20C0.5 25.3043 2.60714 30.3914 6.35786 34.1421C10.1086 37.8929 15.1957 40 20.5 40Z" fill="#EA5B5B"/>
<path d="M12.1148 11.615C12.2309 11.4986 12.3688 11.4062 12.5207 11.3432C12.6726 11.2802 12.8354 11.2477 12.9998 11.2477C13.1642 11.2477 13.327 11.2802 13.4789 11.3432C13.6307 11.4062 13.7687 11.4986 13.8848 11.615L20.4998 18.2325L27.1148 11.615C27.231 11.4988 27.369 11.4066 27.5208 11.3437C27.6727 11.2808 27.8354 11.2484 27.9998 11.2484C28.1642 11.2484 28.3269 11.2808 28.4788 11.3437C28.6306 11.4066 28.7686 11.4988 28.8848 11.615C29.001 11.7312 29.0932 11.8692 29.1561 12.021C29.219 12.1729 29.2514 12.3356 29.2514 12.5C29.2514 12.6643 29.219 12.8271 29.1561 12.9789C29.0932 13.1308 29.001 13.2688 28.8848 13.385L22.2673 20L28.8848 26.615C29.001 26.7312 29.0932 26.8692 29.1561 27.021C29.219 27.1729 29.2514 27.3356 29.2514 27.5C29.2514 27.6643 29.219 27.8271 29.1561 27.9789C29.0932 28.1308 29.001 28.2688 28.8848 28.385C28.7686 28.5012 28.6306 28.5934 28.4788 28.6563C28.3269 28.7192 28.1642 28.7516 27.9998 28.7516C27.8354 28.7516 27.6727 28.7192 27.5208 28.6563C27.369 28.5934 27.231 28.5012 27.1148 28.385L20.4998 21.7675L13.8848 28.385C13.7686 28.5012 13.6306 28.5934 13.4788 28.6563C13.3269 28.7192 13.1642 28.7516 12.9998 28.7516C12.8354 28.7516 12.6727 28.7192 12.5208 28.6563C12.369 28.5934 12.231 28.5012 12.1148 28.385C11.9986 28.2688 11.9064 28.1308 11.8435 27.9789C11.7806 27.8271 11.7482 27.6643 11.7482 27.5C11.7482 27.3356 11.7806 27.1729 11.8435 27.021C11.9064 26.8692 11.9986 26.7312 12.1148 26.615L18.7323 20L12.1148 13.385C11.9984 13.2689 11.906 13.1309 11.843 12.9791C11.78 12.8272 11.7476 12.6644 11.7476 12.5C11.7476 12.3356 11.78 12.1728 11.843 12.0209C11.906 11.869 11.9984 11.7311 12.1148 11.615Z" fill="#EA5B5B"/>
</g>
<defs>
<clipPath id="clip0_2542_9113">
<rect width="40" height="40" fill="white" transform="translate(0.5)"/>
</clipPath>
</defs>
</svg>
