<svg width="30" height="30" viewBox="0 0 30 30" fill="none" xmlns="http://www.w3.org/2000/svg">
<path d="M20.0736 6.17626C18.4073 5.80904 16.706 5.6242 14.9998 5.62501C9.86043 5.62501 5.10543 7.27877 1.24293 10.0856C1.13764 10.1643 1.05066 10.2649 0.987979 10.3804C0.9253 10.496 0.888412 10.6237 0.879858 10.7549C0.871303 10.8861 0.891286 11.0175 0.938428 11.1402C0.985571 11.2629 1.05875 11.3739 1.15293 11.4656C1.3168 11.627 1.53263 11.725 1.76199 11.7422C1.99135 11.7594 2.21936 11.6946 2.40543 11.5594C6.07132 8.91374 10.4789 7.49309 14.9998 7.50002C16.1811 7.50002 17.3417 7.59376 18.4723 7.77751L20.0736 6.17626ZM14.9998 11.25C11.4279 11.25 8.09981 12.3 5.31356 14.1113C5.20209 14.1865 5.1089 14.2857 5.04083 14.4017C4.97276 14.5177 4.93155 14.6474 4.92022 14.7814C4.90889 14.9154 4.92773 15.0503 4.97535 15.176C5.02298 15.3018 5.09818 15.4153 5.19543 15.5081C5.35519 15.6641 5.5632 15.7611 5.78534 15.7832C6.00747 15.8053 6.23054 15.7513 6.41793 15.63C8.40669 14.3555 10.6553 13.5419 12.9992 13.2488L14.9998 11.25ZM19.8673 13.8825L21.3392 12.4106C22.5204 12.8606 23.6398 13.4325 24.6861 14.1113C24.797 14.1869 24.8896 14.2864 24.9572 14.4023C25.0249 14.5183 25.0659 14.6478 25.0772 14.7816C25.0885 14.9154 25.0699 15.05 25.0226 15.1757C24.9754 15.3014 24.9008 15.4149 24.8042 15.5081C24.6444 15.6641 24.4364 15.7611 24.2143 15.7832C23.9921 15.8053 23.7691 15.7513 23.5817 15.63C22.425 14.8893 21.1771 14.3019 19.8692 13.8825H19.8673ZM14.9998 18.75L16.7492 17.0006C18.0643 17.1889 19.3395 17.5924 20.5236 18.195C21.0579 18.4669 21.1348 19.1775 20.7111 19.6013L20.6829 19.6294C20.5333 19.7732 20.3425 19.8668 20.1371 19.897C19.9318 19.9273 19.7221 19.8927 19.5373 19.7981C18.125 19.106 16.5726 18.7474 14.9998 18.75ZM24.1967 9.55314L25.5973 8.15252C26.7036 8.71502 27.7592 9.36189 28.7567 10.0838C28.8622 10.1626 28.9493 10.2634 29.012 10.3791C29.0747 10.4949 29.1115 10.6229 29.1199 10.7544C29.1283 10.8858 29.108 11.0174 29.0605 11.1402C29.013 11.263 28.9394 11.3741 28.8448 11.4656C28.6809 11.627 28.4651 11.725 28.2358 11.7422C28.0064 11.7594 27.7784 11.6946 27.5923 11.5594C26.5241 10.7882 25.3875 10.1167 24.1967 9.55314ZM16.9123 22.0875C17.3586 22.35 17.3548 22.9575 16.9873 23.325L15.6617 24.6488C15.4859 24.8245 15.2475 24.9233 14.9989 24.9233C14.7503 24.9233 14.5119 24.8245 14.3361 24.6488L13.0104 23.3231C12.6448 22.9575 12.6411 22.3519 13.0854 22.0856C13.6646 21.7416 14.3262 21.5609 14.9998 21.5625C15.7011 21.5625 16.3554 21.7538 16.9142 22.0875H16.9123ZM25.0779 3.51564C25.2644 3.32916 25.5173 3.2244 25.7811 3.2244C26.0448 3.2244 26.2977 3.32916 26.4842 3.51564C26.6707 3.70212 26.7754 3.95504 26.7754 4.21876C26.7754 4.48249 26.6707 4.73541 26.4842 4.92189L6.32793 25.0781C6.2356 25.1705 6.12598 25.2437 6.00534 25.2937C5.88469 25.3437 5.75539 25.3694 5.62481 25.3694C5.49422 25.3694 5.36492 25.3437 5.24428 25.2937C5.12364 25.2437 5.01402 25.1705 4.92168 25.0781C4.82935 24.9858 4.7561 24.8762 4.70613 24.7555C4.65616 24.6349 4.63044 24.5056 4.63044 24.375C4.63044 24.2444 4.65616 24.1151 4.70613 23.9945C4.7561 23.8738 4.82935 23.7642 4.92168 23.6719L25.0779 3.51564Z" fill="#EA5B5B"/>
</svg>
