<svg width="26" height="26" viewBox="0 0 26 26" fill="none" xmlns="http://www.w3.org/2000/svg">
<path d="M17.2288 5.6469C15.8402 5.34088 14.4225 5.18685 13.0007 5.18753C8.71784 5.18753 4.75534 6.56565 1.53659 8.90472C1.44885 8.97029 1.37636 9.0541 1.32413 9.15038C1.2719 9.24666 1.24116 9.35312 1.23403 9.46243C1.2269 9.57173 1.24355 9.68128 1.28284 9.78353C1.32212 9.88578 1.38311 9.9783 1.46159 10.0547C1.59815 10.1892 1.778 10.2709 1.96914 10.2852C2.16027 10.2995 2.35028 10.2455 2.50534 10.1328C5.56025 7.92813 9.23327 6.74426 13.0007 6.75003C13.985 6.75003 14.9522 6.82815 15.8944 6.98128L17.2288 5.6469ZM13.0007 9.87503C10.0241 9.87503 7.25065 10.75 4.92878 12.2594C4.83589 12.3221 4.75823 12.4048 4.70151 12.5014C4.64478 12.5981 4.61044 12.7062 4.601 12.8179C4.59155 12.9295 4.60725 13.0419 4.64694 13.1467C4.68663 13.2515 4.7493 13.3461 4.83034 13.4235C4.96347 13.5534 5.13681 13.6342 5.32193 13.6527C5.50704 13.6711 5.69293 13.6261 5.84909 13.525C7.50639 12.4629 9.38025 11.7849 11.3335 11.5407L13.0007 9.87503ZM17.0569 12.0688L18.2835 10.8422C19.2678 11.2172 20.2007 11.6938 21.0725 12.2594C21.1649 12.3225 21.2421 12.4053 21.2985 12.5019C21.3549 12.5986 21.389 12.7066 21.3985 12.818C21.4079 12.9295 21.3924 13.0417 21.353 13.1464C21.3137 13.2511 21.2515 13.3458 21.171 13.4235C21.0378 13.5534 20.8645 13.6342 20.6794 13.6527C20.4943 13.6711 20.3084 13.6261 20.1522 13.525C19.1883 12.9077 18.1484 12.4182 17.0585 12.0688H17.0569ZM13.0007 16.125L14.4585 14.6672C15.5544 14.8241 16.6171 15.1604 17.6038 15.6625C18.0491 15.8891 18.1132 16.4813 17.76 16.8344L17.7366 16.8578C17.6119 16.9777 17.4529 17.0557 17.2817 17.0809C17.1106 17.1061 16.9359 17.0773 16.7819 16.9985C15.605 16.4217 14.3113 16.1228 13.0007 16.125ZM20.6647 8.46096L21.8319 7.29378C22.7538 7.76253 23.6335 8.30159 24.4647 8.90315C24.5526 8.96883 24.6252 9.05282 24.6775 9.1493C24.7297 9.24579 24.7604 9.35247 24.7674 9.46197C24.7744 9.57148 24.7575 9.68119 24.7179 9.78353C24.6783 9.88588 24.617 9.9784 24.5382 10.0547C24.4016 10.1892 24.2217 10.2709 24.0306 10.2852C23.8395 10.2995 23.6495 10.2455 23.4944 10.1328C22.6043 9.49022 21.6571 8.93059 20.6647 8.46096ZM14.5944 18.9063C14.9663 19.125 14.9632 19.6313 14.6569 19.9375L13.5522 21.0407C13.4057 21.1871 13.207 21.2694 12.9999 21.2694C12.7927 21.2694 12.594 21.1871 12.4475 21.0407L11.3428 19.936C11.0382 19.6313 11.035 19.1266 11.4053 18.9047C11.888 18.6181 12.4393 18.4674 13.0007 18.4688C13.585 18.4688 14.1303 18.6282 14.596 18.9063H14.5944ZM21.3991 3.42971C21.5545 3.27431 21.7653 3.18701 21.985 3.18701C22.2048 3.18701 22.4156 3.27431 22.571 3.42971C22.7264 3.58512 22.8137 3.79588 22.8137 4.01565C22.8137 4.23542 22.7264 4.44619 22.571 4.60159L5.77409 21.3985C5.69714 21.4754 5.60579 21.5364 5.50526 21.5781C5.40472 21.6197 5.29697 21.6412 5.18815 21.6412C5.07933 21.6412 4.97158 21.6197 4.87105 21.5781C4.77051 21.5364 4.67916 21.4754 4.60222 21.3985C4.52527 21.3215 4.46423 21.2302 4.42259 21.1296C4.38095 21.0291 4.35951 20.9213 4.35951 20.8125C4.35951 20.7037 4.38095 20.596 4.42259 20.4954C4.46423 20.3949 4.52527 20.3035 4.60222 20.2266L21.3991 3.42971Z" fill="#F5F5F5"/>
</svg>
