<svg width="25" height="25" viewBox="0 0 25 25" fill="none" xmlns="http://www.w3.org/2000/svg">
<path d="M20.2739 6.1875C20.2739 6.6019 20.1101 6.99933 19.8185 7.29235C19.527 7.58538 19.1315 7.75 18.7192 7.75C18.3069 7.75 17.9115 7.58538 17.6199 7.29235C17.3284 6.99933 17.1646 6.6019 17.1646 6.1875C17.1646 5.7731 17.3284 5.37567 17.6199 5.08265C17.9115 4.78962 18.3069 4.625 18.7192 4.625C19.1315 4.625 19.527 4.78962 19.8185 5.08265C20.1101 5.37567 20.2739 5.7731 20.2739 6.1875ZM16.8536 0C14.6935 0.00132462 12.6222 0.864359 11.0947 2.39953C9.56729 3.93469 8.7086 6.01645 8.70728 8.1875C8.70728 8.67125 8.76946 9.1375 8.84409 9.5675C8.85502 9.62163 8.85282 9.67761 8.83767 9.7307C8.82251 9.78379 8.79485 9.83243 8.75703 9.8725L1.00244 17.6675C0.360938 18.3119 0.000358617 19.186 0 20.0975V22.8125C0 24.02 0.975076 25 2.17651 25H5.28581C5.86305 25 6.41666 24.7695 6.82483 24.3593C7.23301 23.9491 7.46232 23.3927 7.46232 22.8125V21.25H9.64007C10.4982 21.25 11.1947 20.55 11.1947 19.6875V17.5H13.3712C13.7738 17.5003 14.1608 17.3436 14.4508 17.0629C14.7407 16.7822 14.9111 16.3994 14.9259 15.995C15.5428 16.155 16.1945 16.25 16.8536 16.25C19.0138 16.2487 21.0851 15.3856 22.6125 13.8505C24.14 12.3153 24.9987 10.2336 25 8.0625C25 3.52375 21.3273 0 16.8536 0ZM10.5729 8.1875C10.5742 6.51373 11.2363 4.90889 12.4139 3.72535C13.5915 2.54181 15.1883 1.87632 16.8536 1.875C20.3385 1.875 23.1344 4.60125 23.1344 8.0625C23.1331 9.73627 22.471 11.3411 21.2934 12.5246C20.1158 13.7082 18.519 14.3737 16.8536 14.375C16.0079 14.375 15.1373 14.1612 14.36 13.825C14.218 13.7637 14.0631 13.7388 13.9092 13.7526C13.7553 13.7663 13.6072 13.8183 13.4782 13.9038C13.3492 13.9893 13.2434 14.1057 13.1702 14.2425C13.0971 14.3793 13.0589 14.5322 13.0591 14.6875V15.625H10.8838C10.0256 15.625 9.32914 16.325 9.32914 17.1875V19.375H7.15263C6.29446 19.375 5.59798 20.075 5.59798 20.9375V22.8125C5.59798 22.8954 5.56522 22.9749 5.50691 23.0335C5.4486 23.0921 5.36951 23.125 5.28705 23.125H2.17775C2.09529 23.125 2.0162 23.0921 1.95789 23.0335C1.89958 22.9749 1.86682 22.8954 1.86682 22.8125V20.0975C1.86682 19.6838 2.03099 19.285 2.32202 18.9925L10.0779 11.1987C10.3275 10.9457 10.5128 10.6359 10.618 10.2956C10.7232 9.95524 10.7453 9.59445 10.6823 9.24375C10.6156 8.8955 10.5789 8.5421 10.5729 8.1875Z" fill="white"/>
</svg>
