<svg width="31" height="30" viewBox="0 0 31 30" fill="none" xmlns="http://www.w3.org/2000/svg">
<path d="M24.8286 7.425C24.8286 7.92228 24.6321 8.39919 24.2822 8.75082C23.9324 9.10246 23.4578 9.3 22.9631 9.3C22.4683 9.3 21.9938 9.10246 21.6439 8.75082C21.294 8.39919 21.0975 7.92228 21.0975 7.425C21.0975 6.92772 21.294 6.45081 21.6439 6.09917C21.9938 5.74754 22.4683 5.55 22.9631 5.55C23.4578 5.55 23.9324 5.74754 24.2822 6.09917C24.6321 6.45081 24.8286 6.92772 24.8286 7.425ZM20.7244 0C18.1322 0.00158955 15.6466 1.03723 13.8137 2.87943C11.9808 4.72163 10.9503 7.21974 10.9487 9.825C10.9487 10.4055 11.0234 10.965 11.1129 11.481C11.126 11.546 11.1234 11.6131 11.1052 11.6768C11.087 11.7405 11.0538 11.7989 11.0084 11.847L1.70293 21.201C0.933126 21.9743 0.50043 23.0231 0.5 24.117V27.375C0.5 28.824 1.67009 30 3.11181 30H6.84297C7.53566 30 8.19999 29.7234 8.6898 29.2312C9.17961 28.7389 9.45478 28.0712 9.45478 27.375V25.5H12.0681C13.0979 25.5 13.9337 24.66 13.9337 23.625V21H16.5455C17.0286 21.0003 17.493 20.8123 17.8409 20.4754C18.1889 20.1386 18.3933 19.6792 18.411 19.194C19.1513 19.386 19.9334 19.5 20.7244 19.5C23.3165 19.4984 25.8021 18.4628 27.635 16.6206C29.468 14.7784 30.4984 12.2803 30.5 9.675C30.5 4.2285 26.0928 0 20.7244 0ZM13.1874 9.825C13.189 7.81647 13.9836 5.89066 15.3967 4.47042C16.8098 3.05018 18.7259 2.25159 20.7244 2.25C24.9062 2.25 28.2613 5.5215 28.2613 9.675C28.2597 11.6835 27.4652 13.6093 26.052 15.0296C24.6389 16.4498 22.7228 17.2484 20.7244 17.25C19.7095 17.25 18.6648 16.9935 17.732 16.59C17.5616 16.5165 17.3757 16.4866 17.191 16.5031C17.0063 16.5196 16.8286 16.582 16.6738 16.6846C16.5191 16.7872 16.3921 16.9269 16.3043 17.091C16.2165 17.2551 16.1706 17.4386 16.1709 17.625V18.75H13.5605C12.5307 18.75 11.695 19.59 11.695 20.625V23.25H9.08316C8.05336 23.25 7.21758 24.09 7.21758 25.125V27.375C7.21758 27.4745 7.17827 27.5698 7.10829 27.6402C7.03832 27.7105 6.94342 27.75 6.84446 27.75H3.1133C3.01435 27.75 2.91944 27.7105 2.84947 27.6402C2.7795 27.5698 2.74019 27.4745 2.74019 27.375V24.117C2.74019 23.6205 2.93719 23.142 3.28643 22.791L12.5934 13.4385C12.893 13.1348 13.1153 12.763 13.2416 12.3547C13.3678 11.9463 13.3943 11.5133 13.3188 11.0925C13.2387 10.6746 13.1947 10.2505 13.1874 9.825Z" fill="#4ECB71"/>
</svg>
