<svg width="20" height="20" viewBox="0 0 20 20" fill="none" xmlns="http://www.w3.org/2000/svg">
<path d="M16.875 1.25C15.8395 1.25 15 2.08947 15 3.125C15 4.16053 15.8395 5 16.875 5C17.9105 5 18.75 4.16053 18.75 3.125C18.75 2.08947 17.9105 1.25 16.875 1.25ZM13.75 3.125C13.75 1.39911 15.1491 0 16.875 0C18.6009 0 20 1.39911 20 3.125C20 4.85089 18.6009 6.25 16.875 6.25C15.9263 6.25 15.0764 5.82727 14.5033 5.15991L6.10623 9.06025C6.19964 9.35686 6.25 9.67255 6.25 10C6.25 10.3275 6.19964 10.6431 6.10623 10.9397L14.5033 14.8401C15.0764 14.1727 15.9263 13.75 16.875 13.75C18.6009 13.75 20 15.1491 20 16.875C20 18.6009 18.6009 20 16.875 20C15.1491 20 13.75 18.6009 13.75 16.875C13.75 16.5475 13.8004 16.2319 13.8938 15.9353L5.49674 12.0349C4.92362 12.7023 4.07368 13.125 3.125 13.125C1.39911 13.125 0 11.7259 0 10C0 8.27411 1.39911 6.875 3.125 6.875C4.07368 6.875 4.92362 7.29773 5.49674 7.96509L13.8938 4.06475C13.8004 3.76814 13.75 3.45245 13.75 3.125ZM3.125 8.125C2.08947 8.125 1.25 8.96447 1.25 10C1.25 11.0355 2.08947 11.875 3.125 11.875C4.16053 11.875 5 11.0355 5 10C5 8.96447 4.16053 8.125 3.125 8.125ZM16.875 15C15.8395 15 15 15.8395 15 16.875C15 17.9105 15.8395 18.75 16.875 18.75C17.9105 18.75 18.75 17.9105 18.75 16.875C18.75 15.8395 17.9105 15 16.875 15Z" fill="white"/>
</svg>
