<svg width="29" height="28" viewBox="0 0 29 28" fill="none" xmlns="http://www.w3.org/2000/svg">
<path d="M24.125 1.75C22.6753 1.75 21.5 2.92525 21.5 4.375C21.5 5.82475 22.6753 7 24.125 7C25.5747 7 26.75 5.82475 26.75 4.375C26.75 2.92525 25.5747 1.75 24.125 1.75ZM19.75 4.375C19.75 1.95875 21.7088 0 24.125 0C26.5412 0 28.5 1.95875 28.5 4.375C28.5 6.79125 26.5412 8.75 24.125 8.75C22.7969 8.75 21.6069 8.15818 20.8046 7.22387L9.04872 12.6844C9.17949 13.0996 9.25 13.5416 9.25 14C9.25 14.4584 9.17949 14.9004 9.04872 15.3156L20.8046 20.7761C21.6069 19.8418 22.7969 19.25 24.125 19.25C26.5412 19.25 28.5 21.2088 28.5 23.625C28.5 26.0412 26.5412 28 24.125 28C21.7088 28 19.75 26.0412 19.75 23.625C19.75 23.1666 19.8205 22.7246 19.9513 22.3094L8.19543 16.8489C7.39307 17.7832 6.20315 18.375 4.875 18.375C2.45875 18.375 0.5 16.4162 0.5 14C0.5 11.5838 2.45875 9.625 4.875 9.625C6.20315 9.625 7.39307 10.2168 8.19543 11.1511L19.9513 5.69065C19.8205 5.2754 19.75 4.83344 19.75 4.375ZM4.875 11.375C3.42525 11.375 2.25 12.5503 2.25 14C2.25 15.4497 3.42525 16.625 4.875 16.625C6.32475 16.625 7.5 15.4497 7.5 14C7.5 12.5503 6.32475 11.375 4.875 11.375ZM24.125 21C22.6753 21 21.5 22.1753 21.5 23.625C21.5 25.0747 22.6753 26.25 24.125 26.25C25.5747 26.25 26.75 25.0747 26.75 23.625C26.75 22.1753 25.5747 21 24.125 21Z" fill="#4ECB71"/>
</svg>
